<svg xmlns="http://www.w3.org/2000/svg" width="100" height="100" viewBox="0 0 100 100">
  <!-- Using circles for precise dots -->
  <g fill="rgb(116, 85, 54)">
    <!-- Outer dot line -->
    <circle cx="5" cy="5" r="1.5"/>
    <circle cx="15" cy="5" r="1.5"/>
    <circle cx="25" cy="5" r="1.5"/>
    <circle cx="35" cy="5" r="1.5"/>
    <circle cx="45" cy="5" r="1.5"/>
    <circle cx="55" cy="5" r="1.5"/>
    <circle cx="65" cy="5" r="1.5"/>
    <circle cx="75" cy="5" r="1.5"/>
    <circle cx="85" cy="5" r="1.5"/>
    <circle cx="95" cy="5" r="1.5"/>
    
    <!-- Copy dots to other sides with same spacing -->
    <circle cx="95" cy="15" r="1.5"/>
    <circle cx="95" cy="25" r="1.5"/>
    <circle cx="95" cy="35" r="1.5"/>
    <circle cx="95" cy="45" r="1.5"/>
    <circle cx="95" cy="55" r="1.5"/>
    <circle cx="95" cy="65" r="1.5"/>
    <circle cx="95" cy="75" r="1.5"/>
    <circle cx="95" cy="85" r="1.5"/>
    <circle cx="95" cy="95" r="1.5"/>

    <circle cx="85" cy="95" r="1.5"/>
    <circle cx="75" cy="95" r="1.5"/>
    <circle cx="65" cy="95" r="1.5"/>
    <circle cx="55" cy="95" r="1.5"/>
    <circle cx="45" cy="95" r="1.5"/>
    <circle cx="35" cy="95" r="1.5"/>
    <circle cx="25" cy="95" r="1.5"/>
    <circle cx="15" cy="95" r="1.5"/>
    <circle cx="5" cy="95" r="1.5"/>

    <circle cx="5" cy="85" r="1.5"/>
    <circle cx="5" cy="75" r="1.5"/>
    <circle cx="5" cy="65" r="1.5"/>
    <circle cx="5" cy="55" r="1.5"/>
    <circle cx="5" cy="45" r="1.5"/>
    <circle cx="5" cy="35" r="1.5"/>
    <circle cx="5" cy="25" r="1.5"/>
    <circle cx="5" cy="15" r="1.5"/>

    <!-- Inner dot line - complete border -->
    <circle cx="15" cy="15" r="1.5"/>
    <circle cx="25" cy="15" r="1.5"/>
    <circle cx="35" cy="15" r="1.5"/>
    <circle cx="45" cy="15" r="1.5"/>
    <circle cx="55" cy="15" r="1.5"/>
    <circle cx="65" cy="15" r="1.5"/>
    <circle cx="75" cy="15" r="1.5"/>
    <circle cx="85" cy="15" r="1.5"/>

    <!-- Right side inner dots -->
    <circle cx="85" cy="25" r="1.5"/>
    <circle cx="85" cy="35" r="1.5"/>
    <circle cx="85" cy="45" r="1.5"/>
    <circle cx="85" cy="55" r="1.5"/>
    <circle cx="85" cy="65" r="1.5"/>
    <circle cx="85" cy="75" r="1.5"/>
    <circle cx="85" cy="85" r="1.5"/>

    <!-- Bottom inner dots -->
    <circle cx="15" cy="85" r="1.5"/>
    <circle cx="25" cy="85" r="1.5"/>
    <circle cx="35" cy="85" r="1.5"/>
    <circle cx="45" cy="85" r="1.5"/>
    <circle cx="55" cy="85" r="1.5"/>
    <circle cx="65" cy="85" r="1.5"/>
    <circle cx="75" cy="85" r="1.5"/>

    <!-- Left side inner dots -->
    <circle cx="15" cy="25" r="1.5"/>
    <circle cx="15" cy="35" r="1.5"/>
    <circle cx="15" cy="45" r="1.5"/>
    <circle cx="15" cy="55" r="1.5"/>
    <circle cx="15" cy="65" r="1.5"/>
    <circle cx="15" cy="75" r="1.5"/>
  </g>

  <!-- Lines with adjusted positions and sizes -->
  <rect x="20" y="20" width="60" height="60" 
        fill="none" stroke="rgb(134, 127, 91)" stroke-width="1"/>
  
  <rect x="30" y="30" width="40" height="40" 
        fill="none" stroke="rgb(55, 43, 39)" stroke-width="5"/>
</svg>
