<svg xmlns="http://www.w3.org/2000/svg" width="39" height="39" viewBox="0 0 39 39">
  <g fill="rgb(116, 85, 54)">
      <!-- top outer dots  -->
      <circle cx="2" cy="2" r="2"/>
      <circle cx="7" cy="2" r="2"/>
      <circle cx="12" cy="2" r="2"/>
      <circle cx="17" cy="2" r="2"/>
      <circle cx="22" cy="2" r="2"/>
      <circle cx="27" cy="2" r="2"/>
      <circle cx="32" cy="2" r="2"/>
      <circle cx="37" cy="2" r="2"/>

      <!-- top inner dots -->
      <circle cx="2" cy="7" r="2"/>
      <circle cx="7" cy="7" r="2"/>
      <circle cx="12" cy="7" r="2"/>
      <circle cx="17" cy="7" r="2"/>
      <circle cx="22" cy="7" r="2"/>
      <circle cx="27" cy="7" r="2"/>
      <circle cx="32" cy="7" r="2"/>
      <circle cx="37" cy="7" r="2"/>

      <!-- bottom outer dots  -->
      <circle cx="2" cy="37" r="2"/>
      <circle cx="7" cy="37" r="2"/>
      <circle cx="12" cy="37" r="2"/>
      <circle cx="17" cy="37" r="2"/>
      <circle cx="22" cy="37" r="2"/>
      <circle cx="27" cy="37" r="2"/>
      <circle cx="32" cy="37" r="2"/>
      <circle cx="37" cy="37" r="2"/>

      <!-- bottom inner dots -->
      <circle cx="2" cy="32" r="2"/>
      <circle cx="7" cy="32" r="2"/>
      <circle cx="12" cy="32" r="2"/>
      <circle cx="17" cy="32" r="2"/>
      <circle cx="22" cy="32" r="2"/>
      <circle cx="27" cy="32" r="2"/>
      <circle cx="32" cy="32" r="2"/>
      <circle cx="37" cy="32" r="2"/>

      <!-- left outer dots  -->
      <circle cx="2" cy="12" r="2"/>
      <circle cx="2" cy="17" r="2"/>
      <circle cx="2" cy="22" r="2"/>
      <circle cx="2" cy="27" r="2"/>

      <!-- left inner dots -->
      <circle cx="7" cy="12" r="2"/>
      <circle cx="7" cy="17" r="2"/>
      <circle cx="7" cy="22" r="2"/>
      <circle cx="7" cy="27" r="2"/>

      <!-- right outer dots  -->
      <circle cx="37" cy="12" r="2"/>
      <circle cx="37" cy="17" r="2"/>
      <circle cx="37" cy="22" r="2"/>
      <circle cx="37" cy="27" r="2"/>
      
      <!-- right inner dots -->
      <circle cx="32" cy="12" r="2"/>
      <circle cx="32" cy="17" r="2"/>
      <circle cx="32" cy="22" r="2"/>
      <circle cx="32" cy="27" r="2"/>
  </g>

  <!-- outer thin line -->
  <rect x="11" y="11" width="17" height="17" 
        fill="none" stroke="rgb(134, 127, 91)" stroke-width="2"/>
  
  <!-- inner thick line -->
  <rect x="17" y="17" width="5" height="5" 
        fill="none" stroke="rgb(55, 43, 39)" stroke-width="5"/>
</svg>